<svg width="50" height="50" viewBox="0 0 50 50" fill="none" xmlns="http://www.w3.org/2000/svg">
<path d="M50 0H0V50H50V0Z" fill="#F78422"/>
<path d="M32.4982 17.4621C25.7219 10.6858 16.7057 6.95392 7.1106 6.95392V14.0138C14.82 14.0138 22.0633 17.0113 27.5062 22.4542C32.949 27.8971 35.9466 35.1404 35.9466 42.8498H43.0064C43.0063 33.2546 39.2744 24.2383 32.4982 17.4621Z" fill="white"/>
<path d="M7.0376 18.9008V25.9607C16.3502 25.9607 23.9267 33.5371 23.9267 42.8499H30.9866C30.9866 29.6443 20.2432 18.9008 7.0376 18.9008Z" fill="white"/>
<path d="M12.0504 43.046C14.843 43.046 17.1069 40.7821 17.1069 37.9895C17.1069 35.1969 14.843 32.933 12.0504 32.933C9.25777 32.933 6.9939 35.1969 6.9939 37.9895C6.9939 40.7821 9.25777 43.046 12.0504 43.046Z" fill="white"/>
</svg>
